<?xml version="1.0" encoding="UTF-8"?>
<svg width="24" height="24" version="1.1" viewBox="0 0 24 24" xmlns="http://www.w3.org/2000/svg">
 <path class="success" d="m11.75 2.9961c-1.0842 0-1.1878 1.502 0 1.502 1.0834 0 2.1554 0.21235 3.1562 0.62695 1.001 0.41461 1.9117 1.023 2.6777 1.7891 0.7661 0.76608 1.3725 1.6749 1.7871 2.6758 0.4146 1.0009 0.62891 2.0748 0.62891 3.1582 0 0.2955-0.058775 0.58648-0.17188 0.85938-0.113 0.273-0.27743 0.52157-0.48633 0.73047s-0.45747 0.37528-0.73047 0.48828c-0.2729 0.1131-0.56583 0.17188-0.86133 0.17188s-0.58833-0.058775-0.86133-0.17188c-0.273-0.113-0.52147-0.27938-0.73047-0.48828-0.2089-0.2089-0.37323-0.45747-0.48633-0.73047-0.1131-0.2729-0.17188-0.56388-0.17188-0.85938 0-0.4925-0.096756-0.98055-0.28516-1.4355-0.1885-0.4549-0.4643-0.8686-0.8125-1.2168-0.3483-0.34827-0.7619-0.62404-1.2168-0.8125-0.455-0.18845-0.94305-0.28516-1.4355-0.28516-0.9867 3.2e-4 -1.9331 0.38827-2.6348 1.082-0.70042 0.6925-1.1003 1.6325-1.1133 2.6172v0.005859l-0.0019531 0.042969v0.009765c-0.01515 5.3338 4.2999 9.6951 9.6367 9.7422 0.0991 2e-3 0.19676-0.016335 0.28906-0.052735 0.0922-0.0364 0.17695-0.091056 0.24805-0.16016 0.0712-0.0691 0.12702-0.15099 0.16602-0.24219 0.0391-0.0912 0.059647-0.18986 0.060547-0.28906s-0.017288-0.19716-0.054688-0.28906-0.092209-0.17569-0.16211-0.24609-0.15449-0.12596-0.24609-0.16406c-0.0916-0.038001-0.18996-0.056841-0.28906-0.056641-4.53-0.0399-8.1612-3.7126-8.1484-8.2383 0-0.004789 5.82e-5 -0.008927 0-0.013672 0-0.2955 0.058805-0.58648 0.17188-0.85938 0.11307-0.273 0.27935-0.52157 0.48828-0.73047 0.20893-0.2089 0.45552-0.37528 0.72852-0.48828 0.273-0.1131 0.56593-0.17188 0.86133-0.17188 0.2955 0 0.58833 0.058775 0.86133 0.17188 0.273 0.113 0.52157 0.27938 0.73047 0.48828 0.209 0.2089 0.37323 0.45747 0.48633 0.73047 0.113 0.2729 0.17188 0.56388 0.17188 0.85938 0 0.4925 0.096656 0.98055 0.28516 1.4355 0.1884 0.4549 0.46625 0.8686 0.81445 1.2168 0.3482 0.3483 0.75984 0.6241 1.2148 0.8125 0.4549 0.1885 0.94315 0.28516 1.4355 0.28516 0.4925 0 0.98055-0.096657 1.4355-0.28516 0.455-0.1884 0.8686-0.4642 1.2168-0.8125 0.3482-0.3482 0.624-0.7619 0.8125-1.2168 0.1884-0.455 0.28516-0.94305 0.28516-1.4355 0-0.038428-0.002169-0.07375-0.005859-0.10938-0.014019-1.243-0.26046-2.472-0.73633-3.6211-0.49-1.1829-1.2079-2.2567-2.1133-3.1621-0.9053-0.90537-1.9792-1.6253-3.1621-2.1152s-2.452-0.74219-3.7324-0.74219zm-5.9922 8.9414c-0.3725-0.010675-0.74747 0.23879-0.75586 0.74609v0.017578 0.019531l-0.0019531 0.027344v0.007812c-0.012 4.1007 1.9607 7.9574 5.293 10.352 0.1423 0.105 0.31569 0.15583 0.49219 0.14453 0.0251-0.0018 0.051472-0.005566 0.076172-0.009765 0.1471-0.0245 0.28222-0.09106 0.39062-0.19336 0.1083-0.1023 0.184-0.23546 0.2168-0.38086 0.0329-0.1454 0.02265-0.29655-0.03125-0.43555-0.0538-0.139-0.14928-0.25845-0.27148-0.34375-2.9405-2.1127-4.6762-5.5115-4.666-9.1289v-0.013672c0-0.5286-0.36969-0.79792-0.74219-0.80859zm5.9824 0.03125c-0.1989 0.0024-0.38834 0.084263-0.52734 0.22656-0.139 0.1423-0.21519 0.3343-0.21289 0.5332v0.009765 0.009766c1e-4 0.0264 0.001006 0.051825 0.003906 0.078125 0.0428 3.6581 3.0154 6.6394 6.6855 6.6719 0.0992 0.0019 0.19872-0.016334 0.29102-0.052735 0.0922-0.0363 0.17499-0.091056 0.24609-0.16016 0.071201-0.0691 0.12897-0.15099 0.16797-0.24219s0.059647-0.18986 0.060547-0.28906-0.017287-0.19726-0.054687-0.28906c-0.0374-0.0919-0.094163-0.17569-0.16406-0.24609-0.0699-0.0703-0.15254-0.12606-0.24414-0.16406-0.0916-0.038001-0.18986-0.056841-0.28906-0.056641-2.8908-0.0255-5.2033-2.361-5.2031-5.25v-0.015625c0.0018-0.1004-0.017188-0.19987-0.054688-0.29297-0.037399-0.0931-0.093362-0.17695-0.16406-0.24805-0.0708-0.0712-0.15319-0.12802-0.24609-0.16602s-0.19452-0.057841-0.29492-0.056641z" fill="#68b723"/>
 <g fill="#555761">
  <path d="m11.75 5.9971c-1.7819 3.4e-4 -3.4913 0.70523-4.7555 1.9609 0.80853-0.80309 1.9004 0.16313 1.1407 0.98154 0.46649-0.44291 1.0107-0.7966 1.6057-1.0431 0.63696-0.26384 1.3197-0.39963 2.0091-0.39963s1.3721 0.13579 2.0091 0.39963c0.6369 0.26383 1.2157 0.65055 1.7032 1.138 0.4875 0.48751 0.8742 1.0663 1.1381 1.7033 0.2638 0.6369 0.3996 1.3196 0.3996 2.009 0 0.199 0.079 0.3897 0.2197 0.5304 0.1406 0.1406 0.3314 0.2196 0.5303 0.2196 0.0985 0 0.196-0.0194 0.287-0.057 0.091-0.0377 0.1737-0.093 0.2433-0.1626 0.0697-0.0697 0.1249-0.1523 0.1626-0.2433s0.0571-0.1886 0.0571-0.2871c1e-4 -0.0234-9e-4 -0.0469-3e-3 -0.0703-0.0185-1.7775-0.7374-3.4759-2.0007-4.7266-1.2632-1.2506-2.9687-1.9522-4.7463-1.9529z" opacity=".5"/>
  <path d="m11.75 2.9971c-2.5778 3.6e-4 -5.0505 1.0215-6.8773 2.8401-1.8269 1.8186-2.8592 4.2867-2.8712 6.8644v0.0015c0.03936 1.1897 1.4565 1.2205 1.4986 0.1443l-2e-5 -0.0868v-0.0135c0-1.0834 0.21339-2.1562 0.62799-3.1571 0.4146-1.0009 1.0223-1.9104 1.7884-2.6765 0.76608-0.76608 1.6756-1.3738 2.6765-1.7884 1.0009-0.4146 2.0737-0.62799 3.1571-0.62799-1.1878 0-1.0842-1.5 0-1.5z" opacity=".5"/>
  <path d="m2.0015 12.703c-7.9e-4 0.0122-0.00128 0.0244-0.00147 0.0366v0.0326c2.4e-4 0.0112 7.3e-4 0.0225 0.00147 0.0337 9.1e-4 1.9261 0.35448 3.8361 1.0474 5.6338 0.07168 0.1857 0.2142 0.3353 0.3962 0.416 0.18199 0.0806 0.38857 0.0856 0.57427 0.0139 0.1857-0.0716 0.33532-0.2142 0.41595-0.3962 0.08062-0.182 0.08565-0.3885 0.01396-0.5742-0.62162-1.6129-0.94349-3.3244-0.94919-5.0519-0.04202 1.0762-1.4592 1.0454-1.4986-0.1443z" opacity=".5"/>
  <path d="m6.5 12.747c0-0.6894 0.1358-1.3721 0.39964-2.009 0.26383-0.637 0.65055-1.2158 1.138-1.7033 0.03211-0.0321 0.06461-0.06377 0.0975-0.09499 0.75966-0.81841-0.33217-1.7846-1.1407-0.98154-1.2601 1.2516-1.976 2.9492-1.9929 4.7248 0.01677-1.0146 1.4984-0.9932 1.4984 0.064z" opacity=".5"/>
  <path d="m12.022 0.002921c-3.0229-0.0645-6.0691 0.93904-8.5254 3.0249-0.07512 0.06377-0.13695 0.14171-0.18195 0.22937-0.045 0.08767-0.0723 0.18333-0.08033 0.28155-0.00802 0.09821 0.00337 0.19704 0.03354 0.29085 0.03017 0.0938 0.07852 0.18075 0.14229 0.25587s0.14171 0.13695 0.22938 0.18195c0.08766 0.045 0.18333 0.07229 0.28155 0.08031 0.09821 0.00802 0.19704-0.00338 0.29084-0.03355 0.09381-0.03017 0.18076-0.07852 0.25587-0.1423 4.3432-3.6882 10.74-3.5523 14.922 0.31787 0.0719 0.06909 0.1568 0.12318 0.2497 0.1591 0.093 0.03592 0.1922 0.05294 0.2918 0.05008 0.0997-0.00286 0.1977-0.02555 0.2885-0.06674s0.1724-0.10006 0.2402-0.17317c0.0677-0.0731 0.1202-0.15898 0.1544-0.25261s0.0494-0.19313 0.0447-0.29269c-0.0048-0.09957-0.0293-0.19719-0.0721-0.28717-0.0429-0.08999-0.1033-0.17052-0.1776-0.2369-2.3651-2.1887-5.3648-3.3222-8.3877-3.3867z" opacity=".5"/>
  <path d="m8 12.747 5e-5 -0.0014-5e-5 0.0104z" clip-rule="evenodd" fill-rule="evenodd" opacity=".5"/>
 </g>
</svg>
