<svg width="24" height="24" viewBox="0 0 24 24" fill="none" xmlns="http://www.w3.org/2000/svg">
<path d="M7.50001 12.7561C7.48486 18.0899 11.799 22.4502 17.1358 22.4973C17.2349 22.4993 17.3335 22.4816 17.4258 22.4452C17.518 22.4088 17.6022 22.3545 17.6733 22.2854C17.7445 22.2163 17.8012 22.1337 17.8402 22.0425C17.8793 21.9513 17.8998 21.8533 17.9007 21.7541C17.9016 21.6549 17.8828 21.5566 17.8454 21.4647C17.808 21.3728 17.7528 21.2893 17.6829 21.2189C17.613 21.1485 17.5299 21.0927 17.4383 21.0546C17.3467 21.0166 17.2484 20.9971 17.1493 20.9973C12.6193 20.9574 8.98755 17.2862 9.00034 12.7605C9.00034 11.6959 7.55528 11.6912 7.50155 12.6978L7.50148 12.7032L7.50006 12.7457L7.50001 12.7561Z" fill="#333333"/>
<path d="M11.25 5.99706C9.46814 5.9974 7.7587 6.70229 6.49448 7.958C7.30301 7.15491 8.39484 8.12113 7.63518 8.93954C8.10167 8.49663 8.6459 8.14294 9.24091 7.89648C9.87787 7.63264 10.5606 7.49685 11.25 7.49685C11.9394 7.49685 12.6221 7.63264 13.2591 7.89648C13.896 8.16031 14.4748 8.54703 14.9623 9.03453C15.4498 9.52204 15.8365 10.1008 16.1004 10.7378C16.3642 11.3747 16.5 12.0574 16.5 12.7468C16.5 12.9458 16.579 13.1365 16.7197 13.2772C16.8603 13.4178 17.0511 13.4968 17.25 13.4968C17.3485 13.4968 17.446 13.4774 17.537 13.4398C17.628 13.4021 17.7107 13.3468 17.7803 13.2772C17.85 13.2075 17.9052 13.1249 17.9429 13.0339C17.9806 12.9429 18 12.8453 18 12.7468C18.0001 12.7234 17.9991 12.6999 17.997 12.6765C17.9785 10.899 17.2596 9.20057 15.9963 7.94995C14.7331 6.69933 13.0276 5.99773 11.25 5.99706Z" fill="#333333" fill-opacity="0.3"/>
<path d="M11.25 4.4971C12.3334 4.4971 13.4062 4.71049 14.4071 5.12509C15.4081 5.5397 16.3176 6.14739 17.0836 6.91347C17.8497 7.67955 18.4574 8.58903 18.872 9.58996C19.2866 10.5909 19.5 11.6637 19.5 12.7471C19.5 11.6949 21.0003 11.671 21.0003 12.747C21.0003 11.4666 20.7481 10.1988 20.2582 9.01583C19.7682 7.83291 19.05 6.75808 18.1446 5.8527C17.2393 4.94733 16.1644 4.22915 14.9815 3.73917C13.7986 3.24919 12.5304 2.99706 11.25 2.99706C10.1658 2.99706 10.0622 4.4971 11.25 4.4971Z" fill="#333333"/>
<path d="M11.25 2.99706C8.67225 2.99742 6.19954 4.01858 4.37267 5.8372C2.54581 7.65583 1.51349 10.1239 1.50148 12.7016V12.7031C1.54084 13.8928 2.95801 13.9236 3.00003 12.8474L3.00001 12.7606V12.7471C3.00001 11.6637 3.2134 10.5909 3.628 9.58996C4.0426 8.58903 4.65029 7.67955 5.41638 6.91347C6.18246 6.14739 7.09193 5.5397 8.09287 5.12509C9.09381 4.71049 10.1666 4.4971 11.25 4.4971C10.0622 4.4971 10.1658 2.99706 11.25 2.99706Z" fill="#333333" fill-opacity="0.3"/>
<path d="M1.50148 12.7031C1.50069 12.7153 1.5002 12.7275 1.50001 12.7397V12.7472V12.7517V12.7562V12.7723C1.50025 12.7835 1.50074 12.7948 1.50148 12.806C1.50239 14.7321 1.85596 16.6421 2.54884 18.4398C2.62052 18.6255 2.76304 18.7751 2.94504 18.8558C3.12703 18.9364 3.33361 18.9414 3.51931 18.8697C3.70501 18.7981 3.85463 18.6555 3.93526 18.4735C4.01588 18.2915 4.02091 18.085 3.94922 17.8993C3.3276 16.2864 3.00573 14.5749 3.00003 12.8474C2.95801 13.9236 1.54084 13.8928 1.50148 12.7031Z" fill="#333333" fill-opacity="0.3"/>
<path d="M4.50148 12.7002V12.7207L4.50001 12.7471V12.7561C4.48801 16.8568 6.46021 20.7125 9.79249 23.1067C9.93479 23.2117 10.1096 23.2631 10.2861 23.2518C10.3112 23.25 10.3361 23.247 10.3608 23.2428C10.5079 23.2183 10.6443 23.1505 10.7527 23.0482C10.861 22.9459 10.9365 22.8136 10.9693 22.6682C11.0022 22.5228 10.991 22.3709 10.9371 22.2319C10.8833 22.0929 10.7892 21.9731 10.667 21.8878C7.72654 19.7751 5.98976 16.3777 5.99999 12.7603V12.7468C5.99999 11.6896 4.51839 11.6682 4.50162 12.6828L4.50148 12.7002Z" fill="#333333"/>
<path d="M5.99999 12.7468C5.99999 12.0574 6.13579 11.3747 6.39963 10.7378C6.66346 10.1008 7.05018 9.52204 7.53768 9.03453C7.56979 9.00243 7.60229 8.97076 7.63518 8.93954C8.39484 8.12113 7.30301 7.15491 6.49448 7.958C5.23439 9.20961 4.51853 10.9072 4.50162 12.6828C4.51839 11.6682 5.99999 11.6896 5.99999 12.7468Z" fill="#333333" fill-opacity="0.3"/>
<path d="M15 12.7471C15 12.2546 14.903 11.767 14.7146 11.312C14.5261 10.8571 14.2499 10.4437 13.9017 10.0955C13.5534 9.74723 13.14 9.47101 12.6851 9.28255C12.2301 9.0941 11.7425 8.9971 11.25 8.9971C10.2633 8.99742 9.31642 9.38664 8.61472 10.0804C7.9143 10.7729 7.51449 11.7131 7.50155 12.6978C7.55528 11.6912 9.00034 11.6959 9.00034 12.7605V12.747C9.00034 12.4515 9.05854 12.1589 9.17161 11.886C9.28468 11.613 9.45042 11.3649 9.65935 11.156C9.86828 10.9471 10.1163 10.7813 10.3893 10.6683C10.6623 10.5552 10.9549 10.497 11.2503 10.497C11.5458 10.497 11.8384 10.5552 12.1114 10.6683C12.3844 10.7813 12.6324 10.9471 12.8413 11.156C13.0503 11.3649 13.216 11.613 13.3291 11.886C13.4421 12.1589 13.5003 12.4515 13.5003 12.747C13.5003 14.0348 15 14.0276 15 12.7471Z" fill="#333333"/>
<path d="M19.5 12.7471C19.5 13.0426 19.4418 13.3352 19.3287 13.6081C19.2157 13.8811 19.0499 14.1292 18.841 14.3381C18.6321 14.547 18.384 14.7128 18.111 14.8258C17.8381 14.9389 17.5455 14.9971 17.25 14.9971C16.9545 14.9971 16.662 14.9389 16.389 14.8258C16.116 14.7128 15.868 14.547 15.659 14.3381C15.4501 14.1292 15.2844 13.8811 15.1713 13.6081C15.0582 13.3352 15 13.0426 15 12.7471C15 14.0276 13.5003 14.0348 13.5003 12.747C13.5003 13.2395 13.5973 13.7271 13.7858 14.1821C13.9742 14.637 14.2505 15.0504 14.5987 15.3986C14.9469 15.7469 15.3603 16.0231 15.8153 16.2115C16.2702 16.4 16.7579 16.497 17.2503 16.497C17.7428 16.497 18.2304 16.4 18.6854 16.2115C19.1404 16.0231 19.5538 15.7469 19.902 15.3986C20.2502 15.0504 20.5264 14.637 20.7149 14.1821C20.9033 13.7271 21.0003 13.2395 21.0003 12.747C21.0003 11.671 19.5 11.6949 19.5 12.7471Z" fill="#333333"/>
<path d="M11.5225 0.00292101C8.49958 -0.061579 5.45336 0.941966 2.99708 3.02782C2.92196 3.09159 2.86013 3.16953 2.81513 3.25719C2.77013 3.34486 2.74283 3.44052 2.7348 3.53874C2.72678 3.63695 2.73817 3.73578 2.76834 3.82959C2.79851 3.92339 2.84686 4.01034 2.91063 4.08546C2.9744 4.16058 3.05234 4.22241 3.14001 4.26741C3.22767 4.31241 3.32334 4.3397 3.42156 4.34772C3.51977 4.35574 3.6186 4.34434 3.7124 4.31417C3.80621 4.284 3.89316 4.23565 3.96827 4.17187C8.31152 0.483626 14.7087 0.619586 18.8906 4.48974C18.9625 4.55883 19.0474 4.61292 19.1403 4.64884C19.2333 4.68476 19.3325 4.70178 19.4321 4.69892C19.5318 4.69606 19.6298 4.67337 19.7206 4.63218C19.8114 4.59099 19.893 4.53212 19.9608 4.45901C20.0285 4.38591 20.081 4.30003 20.1152 4.2064C20.1494 4.11277 20.1646 4.01327 20.1599 3.91371C20.1551 3.81414 20.1306 3.71652 20.0878 3.62654C20.0449 3.53655 19.9845 3.45602 19.9102 3.38964C17.5451 1.20091 14.5454 0.067421 11.5225 0.00292101Z" fill="#333333"/>
<path fill-rule="evenodd" clip-rule="evenodd" d="M7.50001 12.7471L7.50006 12.7457L7.50001 12.7561V12.7471Z" fill="#333333" fill-opacity="0.3"/>
<path d="M11.241 11.9692C11.0421 11.9716 10.8523 12.0528 10.7133 12.1951C10.5743 12.3374 10.4975 12.5291 10.4998 12.728V12.7385V12.7475C10.4999 12.7739 10.5014 12.8003 10.5043 12.8266C10.5471 16.4847 13.5197 19.465 17.1898 19.4975C17.289 19.4994 17.3876 19.4817 17.4799 19.4453C17.5721 19.409 17.6563 19.3546 17.7274 19.2855C17.7986 19.2164 17.8553 19.1339 17.8943 19.0427C17.9333 18.9515 17.9539 18.8535 17.9548 18.7543C17.9557 18.6551 17.9369 18.5567 17.8995 18.4649C17.8621 18.373 17.8069 18.2894 17.737 18.219C17.6671 18.1487 17.584 18.0928 17.4924 18.0548C17.4008 18.0168 17.3025 17.9973 17.2033 17.9975C14.3125 17.972 12 15.6365 12.0002 12.7475V12.7325C12.002 12.6321 11.9836 12.5325 11.9461 12.4394C11.9087 12.3463 11.8529 12.2616 11.7822 12.1905C11.7114 12.1193 11.6271 12.0631 11.5342 12.0251C11.4413 11.9871 11.3414 11.968 11.241 11.9692Z" fill="#333333"/>
</svg>
