<?xml version="1.0" encoding="UTF-8"?>
<svg width="24" height="24" fill="none" version="1.1" viewBox="0 0 24 24" xmlns="http://www.w3.org/2000/svg">
 <path class="success" d="m12.023 0.0029197c-3.0229-0.0645-6.0691 0.93954-8.5254 3.0254-0.07512 0.06377-0.13859 0.14281-0.18359 0.23047-0.045 0.08767-0.072048 0.18303-0.080078 0.28125-0.00802 0.09821 0.00303 0.19721 0.033203 0.29102 0.03017 0.0938 0.078808 0.18074 0.14258 0.25586 0.06377 0.07512 0.1428 0.13664 0.23047 0.18164 0.08766 0.045 0.18303 0.072058 0.28125 0.080078 0.09821 0.00802 0.19722-0.00303 0.29102-0.033203 0.09381-0.03017 0.18075-0.078798 0.25586-0.14258 4.3432-3.6882 10.74-3.5518 14.922 0.31836 0.0719 0.06909 0.1571 0.12228 0.25 0.1582 0.093 0.03592 0.19142 0.053641 0.29102 0.050781 0.0997-0.00286 0.19826-0.025216 0.28906-0.066406s0.17243-0.10072 0.24024-0.17383c0.0677-0.0731 0.1201-0.15832 0.1543-0.25195s0.04962-0.19341 0.04492-0.29297c-0.0048-0.09957-0.02947-0.19713-0.07227-0.28711-0.0429-0.08999-0.10344-0.1719-0.17774-0.23828-2.3651-2.1887-5.3638-3.3222-8.3867-3.3867zm-0.27344 2.9941c-0.03387 1.07e-5 -0.06766 0.00301-0.09961 0.00586-2.5414 0.026534-4.9742 1.041-6.7773 2.8359-1.8269 1.8186-2.8591 4.2856-2.8711 6.8633v2e-3c-7.9e-4 0.0122-0.00176 0.02491-0.00195 0.03711v0.03123c2.4e-4 0.0112 0.00121 0.02396 0.00195 0.03516 9.1e-4 1.9261 0.354 3.8351 1.0469 5.6328 0.07168 0.1857 0.21448 0.33532 0.39648 0.41602 0.18199 0.0806 0.38852 0.08537 0.57422 0.01367 0.1857-0.0716 0.33539-0.21448 0.41602-0.39648 0.08062-0.182 0.085362-0.38852 0.013672-0.57422-0.62162-1.6129-0.94352-3.3233-0.94922-5.0508v-0.09961c0-1.0834 0.21431-2.1573 0.62891-3.1582s1.021-1.9097 1.7871-2.6758c0.76608-0.76608 1.6768-1.3745 2.6777-1.7891s2.0728-0.62695 3.1562-0.62695 2.1554 0.21235 3.1562 0.62695c1.001 0.41461 1.9117 1.023 2.6777 1.7891 0.7661 0.76608 1.3725 1.6749 1.7871 2.6758s0.62891 2.0748 0.62891 3.1582c0 0.2955-0.05878 0.58648-0.17188 0.85938-0.113 0.273-0.27743 0.52157-0.48633 0.73047s-0.45747 0.37528-0.73047 0.48828c-0.2729 0.1131-0.56583 0.17188-0.86133 0.17188s-0.58833-0.05878-0.86133-0.17188c-0.273-0.113-0.52147-0.27938-0.73047-0.48828-0.2089-0.2089-0.37323-0.45747-0.48633-0.73047-0.1131-0.2729-0.17188-0.56388-0.17188-0.85938 0-0.4925-0.09676-0.98055-0.28516-1.4355-0.1885-0.4549-0.4643-0.8686-0.8125-1.2168-0.3483-0.34827-0.7619-0.62404-1.2168-0.8125-0.455-0.18845-0.94305-0.28516-1.4355-0.28516-0.9867 3.2e-4 -1.9331 0.38827-2.6348 1.082-0.70042 0.6925-1.1003 1.6325-1.1133 2.6172v0.0059l-0.00195 0.04293v0.0098c-0.01515 5.3338 4.2999 9.6951 9.6367 9.7422 0.0991 2e-3 0.19676-0.01633 0.28906-0.05273 0.0922-0.0364 0.17695-0.09106 0.24805-0.16016 0.0712-0.0691 0.12702-0.15099 0.16602-0.24219 0.0391-0.0912 0.05965-0.18986 0.06055-0.28906s-0.01729-0.19716-0.05469-0.28906-0.09221-0.17569-0.16211-0.24609-0.15449-0.12596-0.24609-0.16406c-0.0916-0.038-0.18996-0.05684-0.28906-0.05664-4.53-0.0399-8.1612-3.7126-8.1484-8.2383 0-0.0047 5.72e-5 -9e-3 0-0.01367 0-0.2955 0.058805-0.58648 0.17188-0.85938 0.11307-0.273 0.2794-0.52157 0.48828-0.73047 0.209-0.2089 0.45552-0.37528 0.72852-0.48828 0.273-0.1131 0.56593-0.17188 0.86133-0.17188 0.2955 0 0.58833 0.05877 0.86133 0.17188 0.273 0.113 0.52157 0.27938 0.73047 0.48828 0.209 0.2089 0.37323 0.45747 0.48633 0.73047 0.113 0.2729 0.17188 0.56388 0.17188 0.85938 0 0.4925 0.09666 0.98055 0.28516 1.4355 0.1884 0.4549 0.46625 0.8686 0.81445 1.2168 0.3482 0.3483 0.75984 0.6241 1.2148 0.8125 0.4549 0.1885 0.94315 0.28516 1.4355 0.28516 0.4925 0 0.98055-0.09666 1.4355-0.28516 0.455-0.1884 0.8686-0.4642 1.2168-0.8125 0.3482-0.3482 0.624-0.7619 0.8125-1.2168 0.1884-0.455 0.28516-0.94305 0.28516-1.4355 0-0.03803-0.0022-0.07409-0.0059-0.10938-2.06e-4 -2e-3 2.16e-4 -0.0039 0-0.0059-0.01474-1.241-0.26121-2.468-0.73633-3.6152-0.48996-1.1829-1.2078-2.2567-2.1132-3.1621-0.9053-0.90537-1.9792-1.6253-3.1621-2.1152s-2.452-0.74219-3.7324-0.74219zm-0.19141 0.017578c-0.09001 0.016504-0.17196 0.044937-0.24414 0.082031 0.0722-0.03708 0.1541-0.065551 0.24414-0.082031zm-0.37695 0.16797c-0.02 0.016025-0.0387 0.033201-0.05664 0.050781v-0.00195c0.01795-0.017579 0.03663-0.032806 0.05664-0.048828zm0.56836 2.8145c-1.7475 3.334e-4 -3.4231 0.68195-4.6797 1.8926-0.025755 0.021699-0.050905 0.043263-0.076172 0.068359-1.2378 1.2295-1.9455 2.8915-1.9863 4.6328-0.0033 0.02968-0.00534 0.06204-0.00586 0.09375v0.03711l-0.00195 0.02734v0.0078c-0.012 4.1007 1.9607 7.9574 5.293 10.352 0.1423 0.105 0.31569 0.15583 0.49219 0.14453 0.0251-0.0018 0.05147-0.0056 0.07617-0.0098 0.1471-0.0245 0.28222-0.09106 0.39062-0.19336 0.1083-0.1023 0.184-0.23546 0.2168-0.38086 0.0329-0.1454 0.02265-0.29655-0.03125-0.43555-0.0538-0.139-0.14733-0.25845-0.26953-0.34375-2.9405-2.1127-4.6782-5.5115-4.668-9.1289v-0.01367c0-0.6894 0.13655-1.3709 0.40039-2.0078 0.26383-0.637 0.64922-1.2156 1.1367-1.7031 0.03211-0.0321 0.064766-0.064483 0.097656-0.095703 0.46649-0.44291 1.0105-0.79651 1.6055-1.043 0.63699-0.26384 1.3204-0.40039 2.0098-0.40039s1.3728 0.13655 2.0098 0.40039c0.6369 0.26383 1.2156 0.65117 1.7031 1.1387 0.4875 0.48751 0.87282 1.0661 1.1367 1.7031 0.2638 0.6369 0.40039 1.3184 0.40039 2.0078 0 0.199 0.07805 0.39055 0.21875 0.53125 0.1406 0.1406 0.33235 0.21875 0.53125 0.21875 0.0985 0 0.19611-0.01904 0.28711-0.05664 0.091-0.0377 0.17454-0.09251 0.24414-0.16211 0.0697-0.0697 0.12441-0.15314 0.16211-0.24414s0.05664-0.18861 0.05664-0.28711c1e-4 -0.0234-0.0018-0.04691-0.0039-0.07031-0.0185-1.7775-0.7367-3.4759-2-4.7266-1.2632-1.2506-2.9685-1.9525-4.7461-1.9531zm-0.0098 5.9727c-0.1989 0.0024-0.38834 0.08426-0.52734 0.22656-0.13897 0.1423-0.21516 0.3343-0.21286 0.5332v0.0196c1e-4 0.0264 1e-3 0.05182 0.0039 0.07813 0.0428 3.6581 3.0154 6.6394 6.6855 6.6719 0.0992 0.0019 0.19872-0.01633 0.29102-0.05273 0.0922-0.0363 0.17499-0.09106 0.24609-0.16016 0.0712-0.0691 0.12897-0.15099 0.16797-0.24219s0.05965-0.18986 0.06055-0.28906-0.01729-0.19726-0.05469-0.28906c-0.0374-0.0919-0.09416-0.17569-0.16406-0.24609-0.0699-0.0703-0.15254-0.12606-0.24414-0.16406s-0.18986-0.05684-0.28906-0.05664c-2.8908-0.0255-5.2033-2.361-5.2031-5.25v-0.01563c0.0018-0.1004-0.01719-0.19987-0.05469-0.29297-0.0374-0.0931-0.09336-0.17695-0.16406-0.24805-0.0708-0.0712-0.15319-0.12802-0.24609-0.16602s-0.19452-0.05784-0.29492-0.05664z" fill="#68b723" style="-inkscape-stroke:none;font-variation-settings:normal"/>
</svg>
